<svg xmlns="http://www.w3.org/2000/svg" viewBox="102.50200000000001 64.40999984741211 370 412.35500049591064"> <svg xmlns="http://www.w3.org/2000/svg" xmlns:xlink="http://www.w3.org/1999/xlink" version="1.1" id="Layer_1" x="172.502" y="134.4099998474121" viewBox="88.36900329589844 224.15884399414062 1779.232421875 1551.7471923828125" enable-background="new 0 0 2000 2000" xml:space="preserve" height="200.5859375" width="230" preserveAspectRatio="xMinYMin" style="overflow: visible;"><path fill="#1D1D1D" d="M1792,734.5c-87.8-185.8-248-337.5-434.3-422.6c-212.8-97.2-460.2-114.9-684.3-46.8  c-201.3,61.2-377.6,190.5-501.3,360.1c-30.2,41.4-56.6,85.3-79.6,131c-20.5,40.9,40.9,77,61.5,36  c175.6-349.6,565.4-551.8,952.8-484.1c371.8,64.9,694.6,378.3,689.7,769.9c-2.3,186.3-78.9,369.7-223.5,489.9  c-135.3,112.4-325.8,165.2-498.1,123.5c-165.3-40-308.4-168.4-365.5-328.9c-58.6-164.8-15-345.6,106-470.9  c119.2-123.5,319.8-182,472.9-83.1c71.6,46.2,116.4,133.2,103.9,218.9c-11.2,77.4-74.8,134.9-153.2,138.2  c-34.4,1.4-68.1-7.5-94.3-30.5c-34.3-30.2-84.9,20-50.4,50.4c69.1,60.8,166.9,64.9,247.4,24.3c84.4-42.5,129.7-135.3,122.8-228.2  c-16.8-225.9-256.1-328.7-456.6-281.8C818.8,744,667.6,909.9,624.4,1097.1c-45,194.8,34.3,398.2,181.4,529.2  c153.6,136.8,363,181.5,560.7,127c203.1-56,367-203.8,446.4-398.3C1893.9,1156.2,1883.3,927.7,1792,734.5z" style="fill: #b48e75; fill-opacity: 1;"></path></svg> <svg y="397.29500007629395" viewBox="0.3800000250339508 3.299999952316284 187.3699951171875 9.470000267028809" x="205.46000213623046" height="9.470000267028809" width="187.3699951171875" style="overflow: visible;"><g fill="#1D1D1D" fill-opacity="1" style=""><path d="M4.36 6.90L4.36 6.90L4.54 6.32Q4.13 6.14 3.69 6.02Q3.24 5.90 2.80 5.90L2.80 5.90Q1.99 5.90 1.45 6.21Q0.91 6.53 0.64 7.09Q0.38 7.64 0.38 8.39L0.38 8.39L0.38 10.27Q0.38 11.10 0.68 11.63Q0.99 12.16 1.55 12.41Q2.11 12.66 2.85 12.68L2.85 12.68Q3.28 12.69 3.72 12.63Q4.16 12.57 4.56 12.47L4.56 12.47L4.42 11.82Q4.43 11.82 4.30 11.84Q4.17 11.87 3.95 11.91Q3.72 11.95 3.44 11.97Q3.16 12.00 2.87 12.00L2.87 12.00Q2.41 11.99 2.07 11.88Q1.73 11.77 1.51 11.54Q1.29 11.32 1.19 10.97Q1.09 10.61 1.09 10.11L1.09 10.11L1.11 8.49Q1.12 7.93 1.29 7.49Q1.46 7.06 1.83 6.81Q2.21 6.57 2.82 6.57L2.82 6.57Q3.20 6.58 3.61 6.66Q4.02 6.75 4.36 6.90ZM12.09 6.54L12.09 6.54L12.14 5.92Q12.14 5.92 11.96 5.89Q11.79 5.86 11.55 5.88L11.55 5.88Q10.85 5.92 10.34 6.07Q9.82 6.23 9.34 6.45L9.34 6.45L9.34 6.02L8.60 6.02L8.60 12.53L9.34 12.53L9.34 7.22Q9.53 7.10 9.79 6.97Q10.05 6.85 10.35 6.75Q10.64 6.66 10.96 6.60Q11.27 6.54 11.54 6.53L11.54 6.53Q11.76 6.51 11.92 6.53Q12.09 6.54 12.09 6.54ZM16.52 10.79L16.52 10.79L16.52 9.98L20.48 9.78L20.48 8.09Q20.48 7.36 20.20 6.88Q19.92 6.40 19.41 6.15Q18.90 5.90 18.19 5.90L18.19 5.90Q17.51 5.90 16.96 6.15Q16.41 6.40 16.10 6.89Q15.79 7.38 15.79 8.13L15.79 8.13L15.79 10.79Q15.79 11.34 15.95 11.70Q16.11 12.06 16.41 12.29Q16.71 12.51 17.13 12.60Q17.54 12.69 18.04 12.69L18.04 12.69Q18.53 12.69 19.10 12.53Q19.68 12.36 20.16 12.08L20.16 12.08L19.87 11.52Q19.39 11.77 18.92 11.91Q18.45 12.06 17.97 12.06L17.97 12.06Q17.66 12.06 17.39 11.99Q17.13 11.92 16.93 11.77Q16.74 11.62 16.63 11.38Q16.52 11.14 16.52 10.79ZM19.75 8.00L19.75 8.00L19.75 9.13L16.52 9.27L16.52 8.14Q16.52 7.62 16.72 7.25Q16.92 6.89 17.30 6.70Q17.67 6.51 18.18 6.51L18.18 6.51Q18.64 6.51 18.99 6.70Q19.34 6.88 19.55 7.21Q19.75 7.54 19.75 8.00ZM28.73 7.98L28.73 7.98Q28.44 7.80 28.06 7.64Q27.69 7.49 27.29 7.39Q26.89 7.29 26.46 7.29L26.46 7.29Q26.07 7.29 25.71 7.40Q25.35 7.50 25.07 7.73Q24.78 7.96 24.62 8.33Q24.46 8.71 24.46 9.26L24.46 9.26L24.46 10.34Q24.46 11.05 24.68 11.52Q24.91 11.99 25.31 12.24Q25.70 12.49 26.24 12.58Q26.78 12.68 27.41 12.66L27.41 12.66Q27.60 12.66 27.87 12.65Q28.14 12.64 28.42 12.62Q28.70 12.60 28.94 12.58Q29.18 12.56 29.33 12.55Q29.48 12.53 29.46 12.53L29.46 12.53L29.46 8.79Q29.46 7.98 29.33 7.43Q29.20 6.88 28.90 6.55Q28.59 6.21 28.07 6.06Q27.55 5.92 26.76 5.92L26.76 5.92L26.73 6.47Q27.12 6.47 27.49 6.53Q27.85 6.59 28.13 6.75Q28.41 6.90 28.57 7.20Q28.73 7.50 28.73 7.98ZM28.73 8.59L28.73 8.59L28.73 11.93Q28.73 11.93 28.68 11.94Q28.62 11.95 28.50 11.95Q28.38 11.96 28.21 11.98Q28.05 12.00 27.83 12.01Q27.62 12.03 27.36 12.04L27.36 12.04Q26.71 12.06 26.28 11.97Q25.85 11.87 25.61 11.64Q25.37 11.41 25.27 11.06Q25.17 10.71 25.17 10.24L25.17 10.24L25.17 9.28Q25.17 8.84 25.30 8.57Q25.42 8.29 25.61 8.16Q25.81 8.02 26.02 7.97Q26.23 7.92 26.39 7.92L26.39 7.92Q26.81 7.92 27.21 8.01Q27.62 8.10 28.01 8.26Q28.40 8.41 28.73 8.59ZM34.28 10.82L34.28 10.82L34.28 6.71L35.54 6.71L35.85 6.03L34.28 6.03L34.28 3.43L33.55 3.43L33.55 10.82Q33.55 11.57 33.88 12.03Q34.20 12.48 34.92 12.70L34.92 12.70L35.14 12.14Q34.85 12.04 34.67 11.86Q34.48 11.69 34.38 11.42Q34.28 11.15 34.28 10.82ZM40.18 10.79L40.18 10.79L40.18 9.98L44.15 9.78L44.15 8.09Q44.15 7.36 43.87 6.88Q43.59 6.40 43.07 6.15Q42.56 5.90 41.86 5.90L41.86 5.90Q41.17 5.90 40.62 6.15Q40.08 6.40 39.77 6.89Q39.45 7.38 39.45 8.13L39.45 8.13L39.45 10.79Q39.45 11.34 39.62 11.70Q39.78 12.06 40.08 12.29Q40.38 12.51 40.79 12.60Q41.21 12.69 41.70 12.69L41.70 12.69Q42.20 12.69 42.77 12.53Q43.34 12.36 43.82 12.08L43.82 12.08L43.53 11.52Q43.05 11.77 42.59 11.91Q42.12 12.06 41.64 12.06L41.64 12.06Q41.32 12.06 41.06 11.99Q40.79 11.92 40.60 11.77Q40.40 11.62 40.29 11.38Q40.18 11.14 40.18 10.79ZM43.42 8.00L43.42 8.00L43.42 9.13L40.18 9.27L40.18 8.14Q40.18 7.62 40.38 7.25Q40.58 6.89 40.96 6.70Q41.34 6.51 41.84 6.51L41.84 6.51Q42.30 6.51 42.65 6.70Q43.00 6.88 43.21 7.21Q43.42 7.54 43.42 8.00ZM57.32 4.04L59.10 4.04L59.43 3.38L57.28 3.38Q56.69 3.38 56.26 3.64Q55.84 3.90 55.63 4.36Q55.41 4.81 55.44 5.41L55.44 5.41Q55.45 5.67 55.53 6.01Q55.62 6.36 55.83 6.70Q56.05 7.03 56.44 7.29L56.44 7.29L56.19 7.29Q55.84 7.29 55.54 7.40Q55.24 7.51 55.02 7.75Q54.80 7.98 54.68 8.35Q54.57 8.71 54.57 9.22L54.57 9.22L54.57 10.45Q54.57 10.89 54.67 11.25Q54.77 11.60 54.97 11.85Q55.16 12.10 55.45 12.27Q55.74 12.44 56.09 12.53Q56.45 12.61 56.88 12.61L56.88 12.61Q57.17 12.61 57.54 12.52Q57.91 12.43 58.27 12.23Q58.64 12.04 58.90 11.73L58.90 11.73Q59.04 12.08 59.34 12.29Q59.65 12.51 60.09 12.65L60.09 12.65L60.26 12.09Q59.82 11.93 59.59 11.60Q59.36 11.27 59.36 10.75L59.36 10.75L59.36 7.98L60.36 7.98L60.66 7.28L59.36 7.28L59.36 5.94L58.67 5.94L58.67 7.29L58.02 7.29Q57.63 7.29 57.30 7.15Q56.96 7.01 56.70 6.75Q56.45 6.50 56.31 6.17Q56.16 5.84 56.16 5.45L56.16 5.45Q56.16 4.82 56.46 4.43Q56.76 4.04 57.32 4.04L57.32 4.04ZM56.58 7.98L58.67 7.98L58.67 10.23Q58.67 10.69 58.48 11.04Q58.28 11.39 57.92 11.61Q57.56 11.83 57.02 11.88L57.02 11.88Q56.46 11.93 56.08 11.77Q55.70 11.60 55.50 11.25Q55.29 10.89 55.29 10.39L55.29 10.39L55.29 9.26Q55.29 8.80 55.42 8.55Q55.55 8.29 55.76 8.17Q55.97 8.05 56.19 8.01Q56.41 7.98 56.58 7.98L56.58 7.98ZM74.89 6.83L74.89 6.83L75.19 6.33Q74.88 6.14 74.58 6.04Q74.28 5.94 74.01 5.91Q73.73 5.88 73.47 5.88L73.47 5.88Q73.08 5.88 72.71 5.98Q72.33 6.08 72.03 6.30Q71.72 6.51 71.54 6.82Q71.36 7.12 71.36 7.54L71.36 7.54Q71.36 7.97 71.56 8.27Q71.76 8.58 72.08 8.80Q72.41 9.02 72.81 9.19Q73.20 9.36 73.60 9.52Q74.00 9.67 74.32 9.86Q74.64 10.05 74.85 10.30Q75.05 10.56 75.05 10.91L75.05 10.91Q75.05 11.22 74.90 11.44Q74.75 11.66 74.51 11.81Q74.27 11.96 74.00 12.03Q73.72 12.09 73.47 12.09L73.47 12.09Q73.07 12.09 72.71 11.99Q72.36 11.90 72.05 11.70Q71.73 11.51 71.43 11.22L71.43 11.22L71.03 11.65Q71.49 12.17 72.14 12.47Q72.79 12.77 73.47 12.77L73.47 12.77Q73.89 12.77 74.29 12.65Q74.68 12.53 75.01 12.30Q75.33 12.06 75.53 11.71Q75.72 11.36 75.72 10.89L75.72 10.89Q75.72 10.41 75.52 10.08Q75.32 9.75 75.00 9.52Q74.67 9.28 74.27 9.11Q73.88 8.93 73.49 8.78Q73.10 8.63 72.77 8.46Q72.45 8.28 72.25 8.06Q72.05 7.84 72.05 7.51L72.05 7.51Q72.05 7.24 72.19 7.05Q72.33 6.85 72.56 6.73Q72.80 6.60 73.08 6.55Q73.36 6.49 73.62 6.49L73.62 6.49Q73.84 6.49 74.07 6.53Q74.29 6.57 74.51 6.64Q74.72 6.71 74.89 6.83ZM80.53 6.46L80.53 6.46L80.53 3.43L79.79 3.43L79.79 12.53L80.53 12.53L80.53 7.01Q80.80 6.85 81.07 6.75Q81.34 6.66 81.62 6.60Q81.90 6.55 82.20 6.55L82.20 6.55Q82.51 6.55 82.81 6.62Q83.11 6.70 83.35 6.87Q83.59 7.05 83.73 7.34Q83.87 7.63 83.87 8.07L83.87 8.07L83.87 12.53L84.60 12.53L84.60 8.03Q84.60 7.62 84.50 7.28Q84.41 6.94 84.22 6.69Q84.03 6.44 83.76 6.26Q83.48 6.08 83.12 5.99Q82.77 5.90 82.34 5.90L82.34 5.90Q82.01 5.90 81.69 5.97Q81.38 6.05 81.08 6.17Q80.78 6.29 80.53 6.46ZM92.87 7.98L92.87 7.98Q92.57 7.80 92.20 7.64Q91.83 7.49 91.42 7.39Q91.02 7.29 90.59 7.29L90.59 7.29Q90.20 7.29 89.84 7.40Q89.49 7.50 89.20 7.73Q88.91 7.96 88.75 8.33Q88.59 8.71 88.59 9.26L88.59 9.26L88.59 10.34Q88.59 11.05 88.82 11.52Q89.04 11.99 89.44 12.24Q89.84 12.49 90.38 12.58Q90.92 12.68 91.54 12.66L91.54 12.66Q91.73 12.66 92.00 12.65Q92.27 12.64 92.55 12.62Q92.83 12.60 93.07 12.58Q93.31 12.56 93.46 12.55Q93.61 12.53 93.59 12.53L93.59 12.53L93.59 8.79Q93.59 7.98 93.46 7.43Q93.33 6.88 93.03 6.55Q92.72 6.21 92.20 6.06Q91.68 5.92 90.89 5.92L90.89 5.92L90.86 6.47Q91.25 6.47 91.62 6.53Q91.98 6.59 92.26 6.75Q92.54 6.90 92.70 7.20Q92.87 7.50 92.87 7.98ZM92.87 8.59L92.87 8.59L92.87 11.93Q92.87 11.93 92.81 11.94Q92.75 11.95 92.63 11.95Q92.51 11.96 92.35 11.98Q92.18 12.00 91.96 12.01Q91.75 12.03 91.49 12.04L91.49 12.04Q90.84 12.06 90.41 11.97Q89.98 11.87 89.74 11.64Q89.50 11.41 89.40 11.06Q89.30 10.71 89.30 10.24L89.30 10.24L89.30 9.28Q89.30 8.84 89.43 8.57Q89.55 8.29 89.75 8.16Q89.94 8.02 90.15 7.97Q90.36 7.92 90.53 7.92L90.53 7.92Q90.94 7.92 91.34 8.01Q91.75 8.10 92.14 8.26Q92.53 8.41 92.87 8.59ZM101.17 6.54L101.17 6.54L101.22 5.92Q101.22 5.92 101.05 5.89Q100.87 5.86 100.64 5.88L100.64 5.88Q99.93 5.92 99.42 6.07Q98.91 6.23 98.43 6.45L98.43 6.45L98.43 6.02L97.69 6.02L97.69 12.53L98.43 12.53L98.43 7.22Q98.61 7.10 98.87 6.97Q99.13 6.85 99.43 6.75Q99.73 6.66 100.04 6.60Q100.35 6.54 100.62 6.53L100.62 6.53Q100.84 6.51 101.01 6.53Q101.17 6.54 101.17 6.54ZM105.60 10.79L105.60 10.79L105.60 9.98L109.56 9.78L109.56 8.09Q109.56 7.36 109.28 6.88Q109.01 6.40 108.49 6.15Q107.98 5.90 107.28 5.90L107.28 5.90Q106.59 5.90 106.04 6.15Q105.50 6.40 105.18 6.89Q104.87 7.38 104.87 8.13L104.87 8.13L104.87 10.79Q104.87 11.34 105.03 11.70Q105.20 12.06 105.50 12.29Q105.79 12.51 106.21 12.60Q106.63 12.69 107.12 12.69L107.12 12.69Q107.61 12.69 108.19 12.53Q108.76 12.36 109.24 12.08L109.24 12.08L108.95 11.52Q108.47 11.77 108.00 11.91Q107.54 12.06 107.06 12.06L107.06 12.06Q106.74 12.06 106.48 11.99Q106.21 11.92 106.02 11.77Q105.82 11.62 105.71 11.38Q105.60 11.14 105.60 10.79ZM108.84 8.00L108.84 8.00L108.84 9.13L105.60 9.27L105.60 8.14Q105.60 7.62 105.80 7.25Q106.00 6.89 106.38 6.70Q106.76 6.51 107.26 6.51L107.26 6.51Q107.72 6.51 108.07 6.70Q108.42 6.88 108.63 7.21Q108.84 7.54 108.84 8.00ZM127.76 8.09L127.76 8.09L127.76 12.53L128.45 12.53L128.45 8.06Q128.45 7.54 128.32 7.14Q128.19 6.73 127.92 6.46Q127.65 6.19 127.26 6.05Q126.86 5.92 126.32 5.92L126.32 5.92Q125.95 5.92 125.59 6.01Q125.22 6.10 124.89 6.26Q124.55 6.42 124.26 6.64L124.26 6.64Q124.09 6.41 123.84 6.25Q123.59 6.08 123.25 6.00Q122.92 5.92 122.51 5.92L122.51 5.92Q122.18 5.92 121.90 5.99Q121.61 6.06 121.35 6.18Q121.09 6.31 120.83 6.47L120.83 6.47L120.83 6.03L120.09 6.03L120.09 12.53L120.83 12.53L120.83 7.03Q121.10 6.88 121.34 6.77Q121.57 6.67 121.82 6.62Q122.08 6.57 122.38 6.57L122.38 6.57Q122.69 6.57 122.97 6.64Q123.26 6.71 123.47 6.88Q123.69 7.06 123.82 7.35Q123.95 7.64 123.95 8.09L123.95 8.09L123.95 12.53L124.63 12.53L124.63 8.06Q124.63 7.79 124.59 7.55Q124.56 7.31 124.48 7.10L124.48 7.10Q124.79 6.90 125.09 6.79Q125.38 6.67 125.66 6.62Q125.94 6.57 126.19 6.57L126.19 6.57Q126.50 6.57 126.78 6.64Q127.06 6.71 127.28 6.88Q127.50 7.06 127.63 7.35Q127.76 7.64 127.76 8.09ZM133.23 10.79L133.23 10.79L133.23 9.98L137.19 9.78L137.19 8.09Q137.19 7.36 136.91 6.88Q136.63 6.40 136.12 6.15Q135.61 5.90 134.91 5.90L134.91 5.90Q134.22 5.90 133.67 6.15Q133.12 6.40 132.81 6.89Q132.50 7.38 132.50 8.13L132.50 8.13L132.50 10.79Q132.50 11.34 132.66 11.70Q132.83 12.06 133.12 12.29Q133.42 12.51 133.84 12.60Q134.25 12.69 134.75 12.69L134.75 12.69Q135.24 12.69 135.81 12.53Q136.39 12.36 136.87 12.08L136.87 12.08L136.58 11.52Q136.10 11.77 135.63 11.91Q135.17 12.06 134.68 12.06L134.68 12.06Q134.37 12.06 134.11 11.99Q133.84 11.92 133.64 11.77Q133.45 11.62 133.34 11.38Q133.23 11.14 133.23 10.79ZM136.47 8.00L136.47 8.00L136.47 9.13L133.23 9.27L133.23 8.14Q133.23 7.62 133.43 7.25Q133.63 6.89 134.01 6.70Q134.39 6.51 134.89 6.51L134.89 6.51Q135.35 6.51 135.70 6.70Q136.05 6.88 136.26 7.21Q136.47 7.54 136.47 8.00ZM148.90 8.09L148.90 8.09L148.90 12.53L149.59 12.53L149.59 8.06Q149.59 7.54 149.46 7.14Q149.33 6.73 149.07 6.46Q148.80 6.19 148.40 6.05Q148.01 5.92 147.46 5.92L147.46 5.92Q147.10 5.92 146.73 6.01Q146.37 6.10 146.03 6.26Q145.69 6.42 145.41 6.64L145.41 6.64Q145.24 6.41 144.98 6.25Q144.73 6.08 144.40 6.00Q144.07 5.92 143.65 5.92L143.65 5.92Q143.33 5.92 143.04 5.99Q142.75 6.06 142.49 6.18Q142.23 6.31 141.97 6.47L141.97 6.47L141.97 6.03L141.23 6.03L141.23 12.53L141.97 12.53L141.97 7.03Q142.25 6.88 142.48 6.77Q142.72 6.67 142.97 6.62Q143.22 6.57 143.52 6.57L143.52 6.57Q143.83 6.57 144.12 6.64Q144.41 6.71 144.62 6.88Q144.83 7.06 144.96 7.35Q145.09 7.64 145.09 8.09L145.09 8.09L145.09 12.53L145.77 12.53L145.77 8.06Q145.77 7.79 145.74 7.55Q145.71 7.31 145.63 7.10L145.63 7.10Q145.94 6.90 146.23 6.79Q146.52 6.67 146.80 6.62Q147.08 6.57 147.33 6.57L147.33 6.57Q147.64 6.57 147.92 6.64Q148.20 6.71 148.42 6.88Q148.64 7.06 148.77 7.35Q148.90 7.64 148.90 8.09ZM158.46 10.13L158.46 10.13L158.46 8.42Q158.46 7.23 157.84 6.55Q157.23 5.88 156.08 5.88L156.08 5.88Q155.31 5.88 154.76 6.17Q154.22 6.46 153.93 7.03Q153.65 7.59 153.65 8.42L153.65 8.42L153.65 10.13Q153.65 10.83 153.92 11.40Q154.19 11.97 154.74 12.32Q155.30 12.66 156.10 12.66L156.10 12.66Q157.28 12.66 157.87 11.97Q158.46 11.27 158.46 10.13ZM157.73 8.42L157.73 8.42L157.73 10.26Q157.73 10.79 157.55 11.19Q157.38 11.58 157.01 11.80Q156.65 12.01 156.10 12.01L156.10 12.01Q155.58 12.01 155.19 11.79Q154.80 11.57 154.59 11.17Q154.37 10.78 154.37 10.26L154.37 10.26L154.37 8.42Q154.37 7.80 154.57 7.38Q154.76 6.96 155.15 6.74Q155.53 6.53 156.10 6.53L156.10 6.53Q156.67 6.53 157.03 6.74Q157.39 6.96 157.56 7.38Q157.73 7.80 157.73 8.42ZM165.99 6.54L165.99 6.54L166.04 5.92Q166.04 5.92 165.87 5.89Q165.69 5.86 165.46 5.88L165.46 5.88Q164.76 5.92 164.24 6.07Q163.73 6.23 163.25 6.45L163.25 6.45L163.25 6.02L162.51 6.02L162.51 12.53L163.25 12.53L163.25 7.22Q163.43 7.10 163.69 6.97Q163.95 6.85 164.25 6.75Q164.55 6.66 164.86 6.60Q165.17 6.54 165.45 6.53L165.45 6.53Q165.67 6.51 165.83 6.53Q165.99 6.54 165.99 6.54ZM169.98 6.02L169.98 12.53L170.72 12.53L170.72 6.02L169.98 6.02ZM170.36 3.30L170.36 3.30Q170.19 3.30 170.05 3.43Q169.92 3.56 169.92 3.74L169.92 3.74Q169.92 3.91 170.05 4.04Q170.19 4.17 170.36 4.17L170.36 4.17Q170.54 4.17 170.67 4.04Q170.80 3.91 170.80 3.74L170.80 3.74Q170.80 3.56 170.67 3.43Q170.54 3.30 170.36 3.30ZM175.42 10.79L175.42 10.79L175.42 9.98L179.39 9.78L179.39 8.09Q179.39 7.36 179.11 6.88Q178.83 6.40 178.32 6.15Q177.80 5.90 177.10 5.90L177.10 5.90Q176.41 5.90 175.87 6.15Q175.32 6.40 175.01 6.89Q174.70 7.38 174.70 8.13L174.70 8.13L174.70 10.79Q174.70 11.34 174.86 11.70Q175.02 12.06 175.32 12.29Q175.62 12.51 176.04 12.60Q176.45 12.69 176.95 12.69L176.95 12.69Q177.44 12.69 178.01 12.53Q178.58 12.36 179.06 12.08L179.06 12.08L178.78 11.52Q178.30 11.77 177.83 11.91Q177.36 12.06 176.88 12.06L176.88 12.06Q176.57 12.06 176.30 11.99Q176.04 11.92 175.84 11.77Q175.65 11.62 175.53 11.38Q175.42 11.14 175.42 10.79ZM178.66 8.00L178.66 8.00L178.66 9.13L175.42 9.27L175.42 8.14Q175.42 7.62 175.63 7.25Q175.83 6.89 176.20 6.70Q176.58 6.51 177.09 6.51L177.09 6.51Q177.54 6.51 177.89 6.70Q178.25 6.88 178.45 7.21Q178.66 7.54 178.66 8.00ZM186.91 6.83L186.91 6.83L187.21 6.33Q186.90 6.14 186.60 6.04Q186.30 5.94 186.03 5.91Q185.76 5.88 185.50 5.88L185.50 5.88Q185.11 5.88 184.73 5.98Q184.35 6.08 184.05 6.30Q183.74 6.51 183.56 6.82Q183.38 7.12 183.38 7.54L183.38 7.54Q183.38 7.97 183.58 8.27Q183.78 8.58 184.11 8.80Q184.43 9.02 184.83 9.19Q185.22 9.36 185.62 9.52Q186.02 9.67 186.34 9.86Q186.67 10.05 186.87 10.30Q187.07 10.56 187.07 10.91L187.07 10.91Q187.07 11.22 186.92 11.44Q186.77 11.66 186.53 11.81Q186.29 11.96 186.02 12.03Q185.74 12.09 185.50 12.09L185.50 12.09Q185.09 12.09 184.74 11.99Q184.38 11.90 184.07 11.70Q183.75 11.51 183.46 11.22L183.46 11.22L183.05 11.65Q183.51 12.17 184.16 12.47Q184.81 12.77 185.50 12.77L185.50 12.77Q185.91 12.77 186.31 12.65Q186.71 12.53 187.03 12.30Q187.36 12.06 187.55 11.71Q187.75 11.36 187.75 10.89L187.75 10.89Q187.75 10.41 187.54 10.08Q187.34 9.75 187.02 9.52Q186.69 9.28 186.30 9.11Q185.90 8.93 185.51 8.78Q185.12 8.63 184.79 8.46Q184.47 8.28 184.27 8.06Q184.07 7.84 184.07 7.51L184.07 7.51Q184.07 7.24 184.21 7.05Q184.35 6.85 184.59 6.73Q184.82 6.60 185.10 6.55Q185.38 6.49 185.64 6.49L185.64 6.49Q185.86 6.49 186.09 6.53Q186.32 6.57 186.53 6.64Q186.74 6.71 186.91 6.83Z" transform="translate(0, 0)"></path></g></svg> <svg y="371.70499992370605" viewBox="1.1100000143051147 6.829999923706055 142.1999969482422 19.520000457763672" x="228.05500030517578" height="19.520000457763672" width="142.1999969482422" style="overflow: visible;"><g fill="#1D1D1D" fill-opacity="1" style=""><path d="M10.15 9.58L10.15 7.13L1.11 7.13L1.11 26.03L3.62 26.03L3.62 17.25L6.97 17.25L7.80 14.88L3.62 14.88L3.62 9.58L10.15 9.58ZM15.26 7.13L15.26 26.03L25.03 26.03L25.03 23.73L17.77 23.73L17.77 7.13L15.26 7.13ZM40.67 26.03L43.58 26.03L38.40 7.13L35.13 7.13L30.06 26.03L32.84 26.03L34.27 20.52L39.21 20.52L40.67 26.03ZM38.64 17.90L34.89 17.90L36.75 10.48L38.64 17.90ZM58.46 9.96L58.46 9.96L59.17 7.86Q58.54 7.51 57.83 7.29Q57.11 7.07 56.38 6.97Q55.66 6.86 54.93 6.86L54.93 6.86Q53.87 6.86 52.79 7.11Q51.71 7.37 50.80 7.92Q49.88 8.48 49.32 9.37Q48.77 10.26 48.77 11.56L48.77 11.56Q48.77 12.61 49.18 13.41Q49.58 14.20 50.26 14.80Q50.93 15.39 51.77 15.85Q52.60 16.31 53.50 16.70Q54.39 17.09 55.24 17.48Q56.09 17.87 56.76 18.33Q57.44 18.79 57.83 19.39Q58.22 19.98 58.22 20.76L58.22 20.76Q58.22 21.63 57.90 22.23Q57.57 22.84 56.99 23.23Q56.41 23.63 55.71 23.81Q55.01 24.00 54.25 24.00L54.25 24.00Q53.39 24.00 52.48 23.77Q51.58 23.54 50.76 23.08Q49.93 22.63 49.36 21.98L49.36 21.98L47.93 23.63Q48.74 24.54 49.76 25.14Q50.77 25.73 51.92 26.04Q53.06 26.35 54.25 26.35L54.25 26.35Q55.55 26.35 56.74 26.04Q57.92 25.73 58.87 25.06Q59.81 24.38 60.35 23.33Q60.89 22.27 60.89 20.82L60.89 20.82Q60.89 19.63 60.49 18.74Q60.08 17.85 59.41 17.19Q58.73 16.52 57.88 16.02Q57.03 15.52 56.11 15.12Q55.20 14.71 54.35 14.35Q53.50 13.99 52.82 13.58Q52.15 13.18 51.74 12.66Q51.34 12.15 51.34 11.50L51.34 11.50Q51.34 10.83 51.69 10.37Q52.04 9.91 52.59 9.65Q53.14 9.40 53.75 9.29Q54.36 9.18 54.90 9.18L54.90 9.18Q55.52 9.18 56.13 9.26Q56.74 9.34 57.33 9.52Q57.92 9.69 58.46 9.96ZM75.29 7.13L75.29 14.88L68.65 14.88L68.65 7.13L66.13 7.13L66.13 26.03L68.65 26.03L68.65 17.25L75.29 17.25L75.29 26.03L77.80 26.03L77.80 7.13L75.29 7.13ZM88.79 7.13L88.79 7.13L83.12 7.13L83.12 26.03L89.17 26.03Q91.03 26.03 92.29 25.34Q93.54 24.65 94.20 23.40Q94.87 22.14 94.87 20.44L94.87 20.44Q94.87 19.17 94.50 18.22Q94.14 17.28 93.49 16.62Q92.84 15.96 92.06 15.61L92.06 15.61Q92.65 15.20 93.06 14.63Q93.46 14.07 93.66 13.36Q93.87 12.66 93.87 11.85L93.87 11.85Q93.87 10.31 93.25 9.26Q92.63 8.21 91.49 7.67Q90.36 7.13 88.79 7.13ZM87.95 14.88L87.95 14.88L85.63 14.88L85.63 9.58L88.09 9.58Q89.06 9.58 89.72 9.84Q90.38 10.10 90.71 10.66Q91.03 11.23 91.03 12.12L91.03 12.12Q91.03 13.07 90.71 13.69Q90.38 14.31 89.71 14.59Q89.03 14.88 87.95 14.88ZM88.63 23.71L88.63 23.71L85.63 23.71L85.63 17.28L88.57 17.28Q89.74 17.28 90.51 17.64Q91.27 18.01 91.65 18.71Q92.03 19.41 92.03 20.36L92.03 20.36Q92.03 21.63 91.55 22.36Q91.06 23.08 90.28 23.40Q89.49 23.71 88.63 23.71ZM109.53 26.03L112.45 26.03L107.26 7.13L103.99 7.13L98.92 26.03L101.70 26.03L103.13 20.52L108.07 20.52L109.53 26.03ZM107.50 17.90L103.75 17.90L105.61 10.48L107.50 17.90ZM125.06 9.77L125.06 9.77L125.73 7.75Q124.81 7.26 123.84 7.05Q122.87 6.83 121.87 6.83L121.87 6.83Q120.39 6.83 119.21 7.42Q118.04 8.02 117.34 9.22Q116.63 10.42 116.63 12.23L116.63 12.23L116.63 21.06Q116.63 22.79 117.28 23.98Q117.93 25.16 119.13 25.74Q120.33 26.32 122.01 26.32L122.01 26.32Q123.03 26.32 124.14 26.08Q125.25 25.84 126.41 25.41L126.41 25.41L126.00 23.11Q125.65 23.19 125.02 23.38Q124.38 23.57 123.64 23.71Q122.90 23.84 122.17 23.84L122.17 23.84Q121.17 23.84 120.51 23.56Q119.85 23.27 119.50 22.65Q119.14 22.03 119.14 21.01L119.14 21.01L119.14 12.15Q119.14 11.12 119.54 10.49Q119.93 9.86 120.64 9.56Q121.36 9.26 122.38 9.26L122.38 9.26Q123.03 9.26 123.75 9.40Q124.46 9.53 125.06 9.77ZM139.16 7.13L134.24 14.53L134.24 7.13L131.59 7.13L131.59 26.03L134.24 26.03L134.24 18.85L135.16 17.36L140.21 26.03L143.31 26.03L136.70 15.09L142.13 7.13L139.16 7.13Z" transform="translate(0, 0)"></path></g></svg></svg>