<svg width="44" height="44" viewBox="0 0 44 44" fill="none" xmlns="http://www.w3.org/2000/svg">
<ellipse cx="22" cy="21.998" rx="22" ry="22" fill="white"/>
<path d="M43.3529 21.998C43.3529 33.7909 33.7929 43.351 22 43.351C10.2071 43.351 0.647059 33.7909 0.647059 21.998C0.647059 10.2051 10.2071 0.645105 22 0.645105C33.7929 0.645105 43.3529 10.2051 43.3529 21.998Z" stroke="white" stroke-opacity="0.5" stroke-width="1.29412"/>
<path d="M22.0006 12.447C25.1103 12.447 25.4792 12.4587 26.7079 12.515C29.8643 12.6586 31.3386 14.1562 31.4822 17.2893C31.5385 18.5171 31.5492 18.8859 31.5492 21.9957C31.5492 25.1064 31.5376 25.4743 31.4822 26.7021C31.3376 29.8322 29.8672 31.3327 26.7079 31.4764C25.4792 31.5327 25.1123 31.5443 22.0006 31.5443C18.8908 31.5443 18.522 31.5327 17.2942 31.4764C14.1301 31.3318 12.6635 29.8274 12.5199 26.7011C12.4636 25.4733 12.4519 25.1054 12.4519 21.9947C12.4519 18.8849 12.4645 18.5171 12.5199 17.2883C12.6645 14.1562 14.1349 12.6577 17.2942 12.514C18.523 12.4587 18.8908 12.447 22.0006 12.447ZM22.0006 10.3477C18.8374 10.3477 18.4414 10.3612 17.1991 10.4175C12.9692 10.6117 10.6185 12.9585 10.4244 17.1922C10.3671 18.4356 10.3535 18.8316 10.3535 21.9947C10.3535 25.1579 10.3671 25.5548 10.4234 26.7972C10.6175 31.027 12.9644 33.3778 17.1981 33.5719C18.4414 33.6282 18.8374 33.6418 22.0006 33.6418C25.1637 33.6418 25.5607 33.6282 26.803 33.5719C31.029 33.3778 33.3856 31.0309 33.5768 26.7972C33.634 25.5548 33.6476 25.1579 33.6476 21.9947C33.6476 18.8316 33.634 18.4356 33.5777 17.1932C33.3875 12.9673 31.0377 10.6126 26.804 10.4185C25.5607 10.3612 25.1637 10.3477 22.0006 10.3477ZM22.0006 16.0139C18.6977 16.0139 16.0198 18.6918 16.0198 21.9947C16.0198 25.2976 18.6977 27.9764 22.0006 27.9764C25.3035 27.9764 27.9813 25.2986 27.9813 21.9947C27.9813 18.6918 25.3035 16.0139 22.0006 16.0139ZM22.0006 25.8771C19.8565 25.8771 18.1182 24.1397 18.1182 21.9947C18.1182 19.8507 19.8565 18.1124 22.0006 18.1124C24.1446 18.1124 25.8829 19.8507 25.8829 21.9947C25.8829 24.1397 24.1446 25.8771 22.0006 25.8771ZM28.2182 14.3804C27.4456 14.3804 26.8195 15.0065 26.8195 15.7781C26.8195 16.5497 27.4456 17.1757 28.2182 17.1757C28.9898 17.1757 29.6148 16.5497 29.6148 15.7781C29.6148 15.0065 28.9898 14.3804 28.2182 14.3804Z" fill="black"/>
</svg>
