<svg width="44" height="44" viewBox="0 0 44 44" fill="none" xmlns="http://www.w3.org/2000/svg">
<ellipse cx="22" cy="21.998" rx="22" ry="22" fill="white"/>
<path d="M43.3529 21.998C43.3529 33.7909 33.7929 43.351 22 43.351C10.2071 43.351 0.647059 33.7909 0.647059 21.998C0.647059 10.2051 10.2071 0.645105 22 0.645105C33.7929 0.645105 43.3529 10.2051 43.3529 21.998Z" stroke="white" stroke-opacity="0.5" stroke-width="1.29412"/>
<path d="M34.363 15.4509C34.2311 14.9239 33.9624 14.4411 33.5842 14.0511C33.2059 13.6612 32.7315 13.378 32.2087 13.2301C30.2988 12.7637 22.6589 12.7637 22.6589 12.7637C22.6589 12.7637 15.019 12.7637 13.1091 13.2745C12.5863 13.4224 12.1119 13.7056 11.7336 14.0955C11.3554 14.4855 11.0867 14.9684 10.9548 15.4954C10.6052 17.4337 10.4343 19.4 10.444 21.3696C10.4315 23.354 10.6025 25.3354 10.9548 27.2883C11.1002 27.7989 11.3749 28.2634 11.7523 28.6369C12.1296 29.0104 12.5969 29.2802 13.1091 29.4204C15.019 29.9312 22.6589 29.9312 22.6589 29.9312C22.6589 29.9312 30.2988 29.9312 32.2087 29.4204C32.7315 29.2725 33.2059 28.9892 33.5842 28.5993C33.9624 28.2093 34.2311 27.7265 34.363 27.1995C34.7098 25.2757 34.8808 23.3244 34.8738 21.3696C34.8863 19.3852 34.7153 17.4039 34.363 15.4509Z" stroke="black" stroke-width="2.44311" stroke-linecap="round" stroke-linejoin="round"/>
<path d="M19.9104 18.2183C19.9104 17.6353 19.9104 17.3438 20.0322 17.181C20.1384 17.0392 20.3009 16.9505 20.4777 16.9378C20.6804 16.9234 20.9257 17.081 21.4161 17.3963L26.2325 20.4925C26.658 20.7661 26.8708 20.9029 26.9443 21.0768C27.0085 21.2288 27.0085 21.4003 26.9443 21.5523C26.8708 21.7262 26.658 21.863 26.2325 22.1366L21.4161 25.2328C20.9257 25.5481 20.6804 25.7057 20.4777 25.6912C20.3009 25.6786 20.1384 25.5899 20.0322 25.4481C19.9104 25.2853 19.9104 24.9938 19.9104 24.4108V18.2183Z" stroke="black" stroke-width="2.44311" stroke-linecap="round" stroke-linejoin="round"/>
</svg>
