<svg width="19" height="19" viewBox="0 0 19 19" fill="none" xmlns="http://www.w3.org/2000/svg">
<path d="M9.5096 2.34102C11.8432 2.34102 12.12 2.34976 13.042 2.39201C15.4106 2.4998 16.517 3.62363 16.6247 5.97471C16.667 6.89606 16.675 7.17283 16.675 9.50643C16.675 11.8408 16.6663 12.1168 16.6247 13.0381C16.5162 15.387 15.4128 16.5131 13.042 16.6208C12.12 16.6631 11.8447 16.6718 9.5096 16.6718C7.176 16.6718 6.89923 16.6631 5.97789 16.6208C3.6035 16.5123 2.50298 15.3834 2.39518 13.0374C2.35294 12.1161 2.3442 11.84 2.3442 9.5057C2.3442 7.1721 2.35367 6.89606 2.39518 5.97398C2.50371 3.62363 3.60714 2.49907 5.97789 2.39128C6.89996 2.34976 7.176 2.34102 9.5096 2.34102ZM9.5096 0.765625C7.13594 0.765625 6.83878 0.775822 5.90651 0.818065C2.73241 0.963733 0.968368 2.72486 0.8227 5.90187C0.779728 6.83488 0.769531 7.13204 0.769531 9.5057C0.769531 11.8794 0.779728 12.1772 0.821972 13.1095C0.96764 16.2836 2.72876 18.0477 5.90578 18.1933C6.83878 18.2356 7.13594 18.2458 9.5096 18.2458C11.8833 18.2458 12.1812 18.2356 13.1134 18.1933C16.2846 18.0477 18.053 16.2865 18.1965 13.1095C18.2395 12.1772 18.2497 11.8794 18.2497 9.5057C18.2497 7.13204 18.2395 6.83488 18.1972 5.9026C18.0545 2.73141 16.2912 0.964462 13.1142 0.818794C12.1812 0.775822 11.8833 0.765625 9.5096 0.765625ZM9.5096 5.01767C7.03106 5.01767 5.02158 7.02716 5.02158 9.5057C5.02158 11.9842 7.03106 13.9945 9.5096 13.9945C11.9881 13.9945 13.9976 11.985 13.9976 9.5057C13.9976 7.02716 11.9881 5.01767 9.5096 5.01767ZM9.5096 12.4191C7.9007 12.4191 6.59625 11.1153 6.59625 9.5057C6.59625 7.8968 7.9007 6.59234 9.5096 6.59234C11.1185 6.59234 12.423 7.8968 12.423 9.5057C12.423 11.1153 11.1185 12.4191 9.5096 12.4191ZM14.1753 3.79188C13.5956 3.79188 13.1258 4.26165 13.1258 4.84068C13.1258 5.41971 13.5956 5.88949 14.1753 5.88949C14.7544 5.88949 15.2234 5.41971 15.2234 4.84068C15.2234 4.26165 14.7544 3.79188 14.1753 3.79188Z" fill="white"/>
</svg>
